<?xml version="1.0" encoding="UTF-8" standalone="no"?>
<!-- Created with Inkscape (http://www.inkscape.org/) -->

<svg
   width="143.61342mm"
   height="60.514217mm"
   viewBox="0 0 143.61342 60.514217"
   version="1.1"
   id="svg924"
   inkscape:version="1.1 (c68e22c387, 2021-05-23)"
   sodipodi:docname="separated.svg"
   xmlns:inkscape="http://www.inkscape.org/namespaces/inkscape"
   xmlns:sodipodi="http://sodipodi.sourceforge.net/DTD/sodipodi-0.dtd"
   xmlns:xlink="http://www.w3.org/1999/xlink"
   xmlns="http://www.w3.org/2000/svg"
   xmlns:svg="http://www.w3.org/2000/svg">
  <sodipodi:namedview
     id="namedview926"
     pagecolor="#ffffff"
     bordercolor="#666666"
     borderopacity="1.0"
     inkscape:pageshadow="2"
     inkscape:pageopacity="0.0"
     inkscape:pagecheckerboard="0"
     inkscape:document-units="mm"
     showgrid="false"
     fit-margin-top="0"
     fit-margin-left="0"
     fit-margin-right="0"
     fit-margin-bottom="0"
     inkscape:zoom="0.72337262"
     inkscape:cx="247.452"
     inkscape:cy="176.25771"
     inkscape:window-width="1920"
     inkscape:window-height="1001"
     inkscape:window-x="-9"
     inkscape:window-y="-9"
     inkscape:window-maximized="1"
     inkscape:current-layer="layer1" />
  <defs
     id="defs921" />
  <g
     inkscape:label="Calque 1"
     inkscape:groupmode="layer"
     id="layer1"
     transform="translate(-39.597617,-14.15058)">
    <ellipse
       style="fill:#fdcac8;fill-opacity:1;stroke:#d43a34;stroke-width:1.24;stroke-linecap:round;stroke-linejoin:round;stroke-dasharray:1.24, 3.72;stroke-dashoffset:0;stroke-opacity:1;paint-order:markers fill stroke"
       id="path1-2-0-5"
       cx="148.81258"
       cy="47.766312"
       rx="31.879784"
       ry="24.379784" />
    <path
       id="path1-2-0-6-96"
       style="fill:none;fill-opacity:1;stroke:none;stroke-width:1.24;stroke-linecap:round;stroke-linejoin:round;stroke-dasharray:1.24, 7.44;stroke-dashoffset:0;stroke-opacity:0.169835;paint-order:markers fill stroke"
       sodipodi:type="inkscape:offset"
       inkscape:radius="2.5190444"
       inkscape:original="M 176.27344 -116.75195 A 31.879784 24.379784 0 0 0 144.39453 -92.373047 A 31.879784 24.379784 0 0 0 176.27344 -67.994141 A 31.879784 24.379784 0 0 0 208.15234 -92.373047 A 31.879784 24.379784 0 0 0 176.27344 -116.75195 z "
       transform="matrix(1,0,0,-1,-27.460841,-44.606682)"
       d="m 176.27344,-119.27148 c -8.85009,1.8e-4 -17.66535,2.75861 -24.07227,7.6582 -6.40692,4.89959 -10.32583,11.995551 -10.32617,19.240233 3.4e-4,7.244683 3.91925,14.340641 10.32617,19.240235 6.40692,4.899593 15.22218,7.658017 24.07227,7.658203 8.85008,-1.88e-4 17.66535,-2.75861 24.07226,-7.658203 6.40692,-4.899594 10.32583,-11.995554 10.32618,-19.240235 -3.5e-4,-7.244681 -3.91926,-14.340643 -10.32618,-19.240233 -6.40691,-4.89959 -15.22218,-7.65802 -24.07226,-7.6582 z" />
    <text
       xml:space="preserve"
       style="font-style:normal;font-variant:normal;font-weight:bold;font-stretch:semi-condensed;font-size:8.46667px;line-height:1.25;font-family:'DejaVu Sans';-inkscape-font-specification:'DejaVu Sans Bold Semi-Condensed';text-align:center;letter-spacing:-0.465335px;word-spacing:0px;text-anchor:middle;fill:#d43a34;fill-opacity:1;stroke:none;stroke-width:0.287944"
       id="text1-8"><textPath
         xlink:href="#path1-2-0-6-96"
         startOffset="50%"
         id="textPath2-3"> Code2 intracomm</textPath></text>
    <ellipse
       style="fill:#b9d2fb;fill-opacity:1;stroke:#346fd4;stroke-width:1.24;stroke-linecap:round;stroke-linejoin:round;stroke-dasharray:1.24, 3.72;stroke-dashoffset:0;stroke-opacity:1;paint-order:markers fill stroke"
       id="path1-2-0-1-9"
       cx="74.23217"
       cy="47.035332"
       rx="31.879784"
       ry="24.379784" />
    <path
       id="path1-2-0-6-9-5"
       style="fill:none;fill-opacity:1;stroke:none;stroke-width:1.24;stroke-linecap:round;stroke-linejoin:round;stroke-dasharray:1.24, 7.44;stroke-dashoffset:0;stroke-opacity:0.169835;paint-order:markers fill stroke"
       sodipodi:type="inkscape:offset"
       inkscape:radius="2.5190444"
       inkscape:original="M 176.27344 -116.75195 A 31.879784 24.379784 0 0 0 144.39453 -92.373047 A 31.879784 24.379784 0 0 0 176.27344 -67.994141 A 31.879784 24.379784 0 0 0 208.15234 -92.373047 A 31.879784 24.379784 0 0 0 176.27344 -116.75195 z "
       transform="matrix(1,0,0,-1,-102.04125,-45.33767)"
       d="m 176.27344,-119.27148 c -8.85009,1.8e-4 -17.66535,2.75861 -24.07227,7.6582 -6.40692,4.89959 -10.32583,11.995551 -10.32617,19.240233 3.4e-4,7.244683 3.91925,14.340641 10.32617,19.240235 6.40692,4.899593 15.22218,7.658017 24.07227,7.658203 8.85008,-1.88e-4 17.66535,-2.75861 24.07226,-7.658203 6.40692,-4.899594 10.32583,-11.995554 10.32618,-19.240235 -3.5e-4,-7.244681 -3.91926,-14.340643 -10.32618,-19.240233 -6.40691,-4.89959 -15.22218,-7.65802 -24.07226,-7.6582 z" />
    <text
       xml:space="preserve"
       style="font-style:normal;font-variant:normal;font-weight:bold;font-stretch:semi-condensed;font-size:8.46667px;line-height:1.25;font-family:'DejaVu Sans';-inkscape-font-specification:'DejaVu Sans Bold Semi-Condensed';text-align:center;letter-spacing:-0.465335px;word-spacing:0px;text-anchor:middle;fill:#346ed4;fill-opacity:1;stroke:none;stroke-width:0.287944"
       id="text1-2-6"><textPath
         xlink:href="#path1-2-0-6-9-5"
         startOffset="50%"
         id="textPath2-9-5">Code1 intracomm</textPath></text>
    <path
       sodipodi:type="star"
       style="fill:#346fd4;fill-opacity:1;stroke:none;stroke-width:1.24;stroke-linecap:round;stroke-linejoin:round;stroke-dasharray:1.24, 7.44;stroke-dashoffset:0;stroke-opacity:0.31052;paint-order:markers fill stroke"
       id="path5"
       inkscape:flatsided="false"
       sodipodi:sides="4"
       sodipodi:cx="153.18625"
       sodipodi:cy="140.00513"
       sodipodi:r1="8.1236839"
       sodipodi:r2="2.518342"
       sodipodi:arg1="0.78539816"
       sodipodi:arg2="1.5707963"
       inkscape:rounded="0.35"
       inkscape:randomized="0"
       transform="matrix(0.47257511,0,0,0.47257511,-9.8078066,-14.5516)"
       inkscape:transform-center-x="1.2427874e-06"
       d="m 158.93056,145.74944 c -1.63049,1.63049 -3.43845,-3.22597 -5.74431,-3.22597 -2.30586,0 -4.11382,4.85646 -5.74431,3.22597 -1.63049,-1.63049 3.22597,-3.43845 3.22597,-5.74431 0,-2.30586 -4.85646,-4.11383 -3.22597,-5.74432 1.63049,-1.63048 3.43845,3.22597 5.74431,3.22597 2.30586,0 4.11382,-4.85645 5.74431,-3.22597 1.63049,1.63049 -3.22597,3.43846 -3.22597,5.74432 0,2.30586 4.85646,4.11382 3.22597,5.74431 z" />
    <path
       sodipodi:type="star"
       style="fill:#346fd4;fill-opacity:1;stroke:none;stroke-width:1.24;stroke-linecap:round;stroke-linejoin:round;stroke-dasharray:1.24, 7.44;stroke-dashoffset:0;stroke-opacity:0.31052;paint-order:markers fill stroke"
       id="path5-06"
       inkscape:flatsided="false"
       sodipodi:sides="4"
       sodipodi:cx="153.18625"
       sodipodi:cy="140.00513"
       sodipodi:r1="8.1236839"
       sodipodi:r2="2.518342"
       sodipodi:arg1="0.78539816"
       sodipodi:arg2="1.5707963"
       inkscape:rounded="0.35"
       inkscape:randomized="0"
       transform="matrix(0.47257511,0,0,0.47257511,11.879996,-25.257107)"
       inkscape:transform-center-x="1.2427874e-06"
       d="m 158.93056,145.74944 c -1.63049,1.63049 -3.43845,-3.22597 -5.74431,-3.22597 -2.30586,0 -4.11382,4.85646 -5.74431,3.22597 -1.63049,-1.63049 3.22597,-3.43845 3.22597,-5.74431 0,-2.30586 -4.85646,-4.11383 -3.22597,-5.74432 1.63049,-1.63048 3.43845,3.22597 5.74431,3.22597 2.30586,0 4.11382,-4.85645 5.74431,-3.22597 1.63049,1.63049 -3.22597,3.43846 -3.22597,5.74432 0,2.30586 4.85646,4.11382 3.22597,5.74431 z" />
    <path
       sodipodi:type="star"
       style="fill:#d43a34;fill-opacity:1;stroke:none;stroke-width:1.24;stroke-linecap:round;stroke-linejoin:round;stroke-dasharray:1.24, 7.44;stroke-dashoffset:0;stroke-opacity:0.31052;paint-order:markers fill stroke"
       id="path5-3"
       inkscape:flatsided="false"
       sodipodi:sides="4"
       sodipodi:cx="153.18625"
       sodipodi:cy="140.00513"
       sodipodi:r1="8.1236839"
       sodipodi:r2="2.518342"
       sodipodi:arg1="0.78539816"
       sodipodi:arg2="1.5707963"
       inkscape:rounded="0.35"
       inkscape:randomized="0"
       transform="matrix(0.47257511,0,0,0.47257511,59.623134,-23.700833)"
       inkscape:transform-center-x="1.2427874e-06"
       d="m 158.93056,145.74944 c -1.63049,1.63049 -3.43845,-3.22597 -5.74431,-3.22597 -2.30586,0 -4.11382,4.85646 -5.74431,3.22597 -1.63049,-1.63049 3.22597,-3.43845 3.22597,-5.74431 0,-2.30586 -4.85646,-4.11383 -3.22597,-5.74432 1.63049,-1.63048 3.43845,3.22597 5.74431,3.22597 2.30586,0 4.11382,-4.85645 5.74431,-3.22597 1.63049,1.63049 -3.22597,3.43846 -3.22597,5.74432 0,2.30586 4.85646,4.11382 3.22597,5.74431 z" />
    <path
       sodipodi:type="star"
       style="fill:#d43a34;fill-opacity:1;stroke:none;stroke-width:1.24;stroke-linecap:round;stroke-linejoin:round;stroke-dasharray:1.24, 7.44;stroke-dashoffset:0;stroke-opacity:0.31052;paint-order:markers fill stroke"
       id="path5-3-5"
       inkscape:flatsided="false"
       sodipodi:sides="4"
       sodipodi:cx="153.18625"
       sodipodi:cy="140.00513"
       sodipodi:r1="8.1236839"
       sodipodi:r2="2.518342"
       sodipodi:arg1="0.78539816"
       sodipodi:arg2="1.5707963"
       inkscape:rounded="0.35"
       inkscape:randomized="0"
       transform="matrix(0.47257511,0,0,0.47257511,75.375614,-8.4842786)"
       inkscape:transform-center-x="1.2427874e-06"
       d="m 158.93056,145.74944 c -1.63049,1.63049 -3.43845,-3.22597 -5.74431,-3.22597 -2.30586,0 -4.11382,4.85646 -5.74431,3.22597 -1.63049,-1.63049 3.22597,-3.43845 3.22597,-5.74431 0,-2.30586 -4.85646,-4.11383 -3.22597,-5.74432 1.63049,-1.63048 3.43845,3.22597 5.74431,3.22597 2.30586,0 4.11382,-4.85645 5.74431,-3.22597 1.63049,1.63049 -3.22597,3.43846 -3.22597,5.74432 0,2.30586 4.85646,4.11382 3.22597,5.74431 z" />
    <path
       sodipodi:type="star"
       style="fill:#d43a34;fill-opacity:1;stroke:none;stroke-width:1.24;stroke-linecap:round;stroke-linejoin:round;stroke-dasharray:1.24, 7.44;stroke-dashoffset:0;stroke-opacity:0.31052;paint-order:markers fill stroke"
       id="path5-3-5-6"
       inkscape:flatsided="false"
       sodipodi:sides="4"
       sodipodi:cx="153.18625"
       sodipodi:cy="140.00513"
       sodipodi:r1="8.1236839"
       sodipodi:r2="2.518342"
       sodipodi:arg1="0.78539816"
       sodipodi:arg2="1.5707963"
       inkscape:rounded="0.35"
       inkscape:randomized="0"
       transform="matrix(0.47257511,0,0,0.47257511,93.519381,-23.398636)"
       inkscape:transform-center-x="1.2427874e-06"
       d="m 158.93056,145.74944 c -1.63049,1.63049 -3.43845,-3.22597 -5.74431,-3.22597 -2.30586,0 -4.11382,4.85646 -5.74431,3.22597 -1.63049,-1.63049 3.22597,-3.43845 3.22597,-5.74431 0,-2.30586 -4.85646,-4.11383 -3.22597,-5.74432 1.63049,-1.63048 3.43845,3.22597 5.74431,3.22597 2.30586,0 4.11382,-4.85645 5.74431,-3.22597 1.63049,1.63049 -3.22597,3.43846 -3.22597,5.74432 0,2.30586 4.85646,4.11382 3.22597,5.74431 z" />
  </g>
</svg>
