<?xml version="1.0" encoding="utf-8" standalone="no"?>
<!DOCTYPE svg PUBLIC "-//W3C//DTD SVG 1.1//EN"
  "http://www.w3.org/Graphics/SVG/1.1/DTD/svg11.dtd">
<svg xmlns:xlink="http://www.w3.org/1999/xlink" width="236.16pt" height="236.16pt" viewBox="0 0 236.16 236.16" xmlns="http://www.w3.org/2000/svg" version="1.1">
 <metadata>
  <rdf:RDF xmlns:dc="http://purl.org/dc/elements/1.1/" xmlns:cc="http://creativecommons.org/ns#" xmlns:rdf="http://www.w3.org/1999/02/22-rdf-syntax-ns#">
   <cc:Work>
    <dc:type rdf:resource="http://purl.org/dc/dcmitype/StillImage"/>
    <dc:date>2023-11-03T09:09:19.277539</dc:date>
    <dc:format>image/svg+xml</dc:format>
    <dc:creator>
     <cc:Agent>
      <dc:title>Matplotlib v3.6.1, https://matplotlib.org/</dc:title>
     </cc:Agent>
    </dc:creator>
   </cc:Work>
  </rdf:RDF>
 </metadata>
 <defs>
  <style type="text/css">*{stroke-linejoin: round; stroke-linecap: butt}</style>
 </defs>
 <g id="figure_1">
  <g id="axes_1">
   <g id="patch_1">
    <path d="M 14.13 222.03 
L 83.43 222.03 
L 14.13 152.73 
z
" clip-path="url(#pc99ab84a54)" style="fill: #f8cecc; stroke: #000000; stroke-linejoin: miter"/>
   </g>
   <g id="patch_2">
    <path d="M 152.73 222.03 
L 222.03 222.03 
L 222.03 152.73 
L 152.73 152.73 
z
" clip-path="url(#pc99ab84a54)" style="fill: #f19c99; stroke: #000000; stroke-linejoin: miter"/>
   </g>
   <g id="patch_3">
    <path d="M 14.13 152.73 
L 83.43 83.43 
L 152.73 14.13 
L 14.13 14.13 
z
" clip-path="url(#pc99ab84a54)" style="fill: #f8cecc; stroke: #000000; stroke-linejoin: miter"/>
   </g>
   <g id="patch_4">
    <path d="M 14.13 152.73 
L 83.43 222.03 
L 152.73 222.03 
L 152.73 152.73 
L 83.43 83.43 
z
" clip-path="url(#pc99ab84a54)" style="fill: #f8cecc; stroke: #000000; stroke-linejoin: miter"/>
   </g>
   <g id="patch_5">
    <path d="M 152.73 152.73 
L 222.03 152.73 
L 222.03 14.13 
L 152.73 14.13 
L 83.43 83.43 
z
" clip-path="url(#pc99ab84a54)" style="fill: #f19c99; stroke: #000000; stroke-linejoin: miter"/>
   </g>
   <g id="patch_6">
    <path d="M 16.209 219.951 
L 150.651 219.951 
L 150.651 154.809 
L 81.351 154.809 
L 81.351 16.209 
L 16.209 16.209 
L 16.209 219.951 
z
" clip-path="url(#pc99ab84a54)" style="fill: none; stroke-dasharray: 7.5,4.5; stroke-dashoffset: 0; stroke: #dae8fc; stroke-width: 3"/>
   </g>
   <g id="patch_7">
    <path d="M 154.809 219.951 
L 219.951 219.951 
L 219.951 16.209 
L 85.509 16.209 
L 85.509 150.651 
L 154.809 150.651 
L 154.809 219.951 
z
" clip-path="url(#pc99ab84a54)" style="fill: none; stroke-dasharray: 7.5,4.5; stroke-dashoffset: 0; stroke: #a9c4eb; stroke-width: 3"/>
   </g>
  </g>
 </g>
 <defs>
  <clipPath id="pc99ab84a54">
   <rect x="7.2" y="7.2" width="221.76" height="221.76"/>
  </clipPath>
 </defs>
</svg>
