<?xml version="1.0" encoding="UTF-8"?>
<svg xmlns="http://www.w3.org/2000/svg" xmlns:xlink="http://www.w3.org/1999/xlink" width="216.426pt" height="96.777pt" viewBox="0 0 216.426 96.777" version="1.1">
<defs>
<clipPath id="clip1">
  <path d="M 186 44 L 216.425781 44 L 216.425781 74 L 186 74 Z M 186 44 "/>
</clipPath>
<clipPath id="clip2">
  <path d="M 181 39 L 216.425781 39 L 216.425781 80 L 181 80 Z M 181 39 "/>
</clipPath>
<clipPath id="clip3">
  <path d="M 144 73 L 177 73 L 177 96.777344 L 144 96.777344 Z M 144 73 "/>
</clipPath>
<clipPath id="clip4">
  <path d="M 139 68 L 183 68 L 183 96.777344 L 139 96.777344 Z M 139 68 "/>
</clipPath>
<clipPath id="clip5">
  <path d="M 39 72 L 72 72 L 72 96.777344 L 39 96.777344 Z M 39 72 "/>
</clipPath>
<clipPath id="clip6">
  <path d="M 33 66 L 78 66 L 78 96.777344 L 33 96.777344 Z M 33 66 "/>
</clipPath>
</defs>
<g id="surface1">
<path style="fill-rule:nonzero;fill:rgb(89.99939%,89.99939%,89.99939%);fill-opacity:1;stroke-width:0.3985;stroke-linecap:butt;stroke-linejoin:miter;stroke:rgb(0%,0%,0%);stroke-opacity:1;stroke-miterlimit:10;" d="M -95.545031 80.170094 L -108.013781 62.3615 L -88.377063 51.025563 Z M -95.545031 80.170094 " transform="matrix(1,0,0,-1,108.213,124.924)"/>
<path style="fill-rule:nonzero;fill:rgb(89.99939%,89.99939%,89.99939%);fill-opacity:1;stroke-width:0.3985;stroke-linecap:butt;stroke-linejoin:miter;stroke:rgb(0%,0%,0%);stroke-opacity:1;stroke-miterlimit:10;" d="M -95.545031 80.170094 L -71.783313 81.494313 L -80.170031 95.545094 Z M -95.545031 80.170094 " transform="matrix(1,0,0,-1,108.213,124.924)"/>
<path style="fill-rule:nonzero;fill:rgb(89.99939%,89.99939%,89.99939%);fill-opacity:1;stroke-width:0.3985;stroke-linecap:butt;stroke-linejoin:miter;stroke:rgb(0%,0%,0%);stroke-opacity:1;stroke-miterlimit:10;" d="M -28.959094 85.166188 L -37.2755 99.302906 L -55.259875 90.357594 L -44.830188 75.920094 Z M -28.959094 85.166188 " transform="matrix(1,0,0,-1,108.213,124.924)"/>
<g clip-path="url(#clip1)" clip-rule="nonzero">
<path style=" stroke:none;fill-rule:nonzero;fill:rgb(89.99939%,89.99939%,89.99939%);fill-opacity:1;" d="M 186.8125 56.929688 L 196.589844 73.898438 L 216.226562 62.5625 L 203.757812 44.753906 Z M 186.8125 56.929688 "/>
</g>
<g clip-path="url(#clip2)" clip-rule="nonzero">
<path style="fill:none;stroke-width:0.3985;stroke-linecap:butt;stroke-linejoin:miter;stroke:rgb(0%,0%,0%);stroke-opacity:1;stroke-miterlimit:10;" d="M 78.5995 67.994313 L 88.376844 51.025563 L 108.013562 62.3615 L 95.544812 80.170094 Z M 78.5995 67.994313 " transform="matrix(1,0,0,-1,108.213,124.924)"/>
</g>
<path style="fill-rule:nonzero;fill:rgb(89.99939%,89.99939%,89.99939%);fill-opacity:1;stroke-width:0.3985;stroke-linecap:butt;stroke-linejoin:miter;stroke:rgb(0%,0%,0%);stroke-opacity:1;stroke-miterlimit:10;" d="M -95.545031 80.170094 L -88.377063 51.025563 L -64.365344 65.744313 L -71.783313 81.494313 Z M -95.545031 80.170094 " transform="matrix(1,0,0,-1,108.213,124.924)"/>
<g clip-path="url(#clip3)" clip-rule="nonzero">
<path style=" stroke:none;fill-rule:nonzero;fill:rgb(89.99939%,89.99939%,89.99939%);fill-opacity:1;" d="M 176.949219 85.238281 L 159.863281 73.707031 L 144.65625 81.492188 L 157.3125 96.578125 Z M 176.949219 85.238281 "/>
</g>
<g clip-path="url(#clip4)" clip-rule="nonzero">
<path style="fill:none;stroke-width:0.3985;stroke-linecap:butt;stroke-linejoin:miter;stroke:rgb(0%,0%,0%);stroke-opacity:1;stroke-miterlimit:10;" d="M 68.736219 39.685719 L 51.650281 51.216969 L 36.44325 43.431813 L 49.0995 28.345875 Z M 68.736219 39.685719 " transform="matrix(1,0,0,-1,108.213,124.924)"/>
</g>
<g clip-path="url(#clip5)" clip-rule="nonzero">
<path style=" stroke:none;fill-rule:nonzero;fill:rgb(89.99939%,89.99939%,89.99939%);fill-opacity:1;" d="M 39.476562 85.238281 L 59.113281 96.578125 L 71.769531 81.492188 L 57.503906 72.382812 Z M 39.476562 85.238281 "/>
</g>
<g clip-path="url(#clip6)" clip-rule="nonzero">
<path style="fill:none;stroke-width:0.3985;stroke-linecap:butt;stroke-linejoin:miter;stroke:rgb(0%,0%,0%);stroke-opacity:1;stroke-miterlimit:10;" d="M -68.736438 39.685719 L -49.099719 28.345875 L -36.443469 43.431813 L -50.709094 52.541188 Z M -68.736438 39.685719 " transform="matrix(1,0,0,-1,108.213,124.924)"/>
</g>
<path style="fill-rule:nonzero;fill:rgb(89.99939%,89.99939%,89.99939%);fill-opacity:1;stroke-width:0.3985;stroke-linecap:butt;stroke-linejoin:miter;stroke:rgb(0%,0%,0%);stroke-opacity:1;stroke-miterlimit:10;" d="M -10.634875 72.724781 L -28.959094 85.166188 L -44.830188 75.920094 L -32.412219 62.920094 Z M -10.634875 72.724781 " transform="matrix(1,0,0,-1,108.213,124.924)"/>
<path style="fill-rule:nonzero;fill:rgb(89.99939%,89.99939%,89.99939%);fill-opacity:1;stroke-width:0.3985;stroke-linecap:butt;stroke-linejoin:miter;stroke:rgb(0%,0%,0%);stroke-opacity:1;stroke-miterlimit:10;" d="M 52.779187 68.115406 L 67.138562 60.275563 L 78.5995 67.994313 L 65.994031 82.33025 Z M 52.779187 68.115406 " transform="matrix(1,0,0,-1,108.213,124.924)"/>
<path style="fill-rule:nonzero;fill:rgb(89.99939%,89.99939%,89.99939%);fill-opacity:1;stroke-width:0.3985;stroke-linecap:butt;stroke-linejoin:miter;stroke:rgb(0%,0%,0%);stroke-opacity:1;stroke-miterlimit:10;" d="M -44.830188 75.920094 L -55.259875 90.357594 L -71.783313 81.494313 L -64.365344 65.744313 Z M -44.830188 75.920094 " transform="matrix(1,0,0,-1,108.213,124.924)"/>
<path style="fill-rule:nonzero;fill:rgb(89.99939%,89.99939%,89.99939%);fill-opacity:1;stroke-width:0.3985;stroke-linecap:butt;stroke-linejoin:miter;stroke:rgb(0%,0%,0%);stroke-opacity:1;stroke-miterlimit:10;" d="M 78.5995 67.994313 L 67.138562 60.275563 L 68.736219 39.685719 L 88.376844 51.025563 Z M 78.5995 67.994313 " transform="matrix(1,0,0,-1,108.213,124.924)"/>
<path style="fill-rule:nonzero;fill:rgb(89.99939%,89.99939%,89.99939%);fill-opacity:1;stroke-width:0.3985;stroke-linecap:butt;stroke-linejoin:miter;stroke:rgb(0%,0%,0%);stroke-opacity:1;stroke-miterlimit:10;" d="M -32.412219 62.920094 L -19.388781 53.275563 L 0.00184375 56.693531 L -10.634875 72.724781 Z M -32.412219 62.920094 " transform="matrix(1,0,0,-1,108.213,124.924)"/>
<path style="fill-rule:nonzero;fill:rgb(89.99939%,89.99939%,89.99939%);fill-opacity:1;stroke-width:0.3985;stroke-linecap:butt;stroke-linejoin:miter;stroke:rgb(0%,0%,0%);stroke-opacity:1;stroke-miterlimit:10;" d="M 14.560437 70.6115 L 19.388562 53.275563 L 36.44325 43.431813 L 33.298719 67.693531 Z M 14.560437 70.6115 " transform="matrix(1,0,0,-1,108.213,124.924)"/>
<path style="fill-rule:nonzero;fill:rgb(89.99939%,89.99939%,89.99939%);fill-opacity:1;stroke-width:0.3985;stroke-linecap:butt;stroke-linejoin:miter;stroke:rgb(0%,0%,0%);stroke-opacity:1;stroke-miterlimit:10;" d="M -10.634875 72.724781 L 0.00184375 56.693531 L 19.388562 53.275563 L 14.560437 70.6115 Z M -10.634875 72.724781 " transform="matrix(1,0,0,-1,108.213,124.924)"/>
<path style="fill-rule:nonzero;fill:rgb(89.99939%,89.99939%,89.99939%);fill-opacity:1;stroke-width:0.3985;stroke-linecap:butt;stroke-linejoin:miter;stroke:rgb(0%,0%,0%);stroke-opacity:1;stroke-miterlimit:10;" d="M 35.087781 100.439625 L 32.154187 84.791188 L 45.134656 82.638844 L 51.751844 93.021656 Z M 35.087781 100.439625 " transform="matrix(1,0,0,-1,108.213,124.924)"/>
<path style="fill-rule:nonzero;fill:rgb(89.99939%,89.99939%,89.99939%);fill-opacity:1;stroke-width:0.3985;stroke-linecap:butt;stroke-linejoin:miter;stroke:rgb(0%,0%,0%);stroke-opacity:1;stroke-miterlimit:10;" d="M -88.377063 51.025563 L -68.736438 39.685719 L -50.709094 52.541188 L -64.365344 65.744313 Z M -88.377063 51.025563 " transform="matrix(1,0,0,-1,108.213,124.924)"/>
<path style="fill-rule:nonzero;fill:rgb(89.99939%,89.99939%,89.99939%);fill-opacity:1;stroke-width:0.3985;stroke-linecap:butt;stroke-linejoin:miter;stroke:rgb(0%,0%,0%);stroke-opacity:1;stroke-miterlimit:10;" d="M -28.959094 85.166188 L -10.634875 72.724781 L -4.755969 90.381031 L -17.767688 93.1115 Z M -28.959094 85.166188 " transform="matrix(1,0,0,-1,108.213,124.924)"/>
<path style="fill-rule:nonzero;fill:rgb(89.99939%,89.99939%,89.99939%);fill-opacity:1;stroke-width:0.3985;stroke-linecap:butt;stroke-linejoin:miter;stroke:rgb(0%,0%,0%);stroke-opacity:1;stroke-miterlimit:10;" d="M -19.388781 53.275563 L -32.412219 62.920094 L -50.709094 52.541188 L -36.443469 43.431813 Z M -19.388781 53.275563 " transform="matrix(1,0,0,-1,108.213,124.924)"/>
<path style="fill-rule:nonzero;fill:rgb(89.99939%,89.99939%,89.99939%);fill-opacity:1;stroke-width:0.3985;stroke-linecap:butt;stroke-linejoin:miter;stroke:rgb(0%,0%,0%);stroke-opacity:1;stroke-miterlimit:10;" d="M -10.634875 72.724781 L 14.560437 70.6115 L 14.337781 87.412281 L -4.755969 90.381031 Z M -10.634875 72.724781 " transform="matrix(1,0,0,-1,108.213,124.924)"/>
<path style="fill-rule:nonzero;fill:rgb(89.99939%,89.99939%,89.99939%);fill-opacity:1;stroke-width:0.3985;stroke-linecap:butt;stroke-linejoin:miter;stroke:rgb(0%,0%,0%);stroke-opacity:1;stroke-miterlimit:10;" d="M 42.658094 117.20525 L 21.658094 122.83025 L 16.900281 104.451344 L 35.087781 100.439625 Z M 42.658094 117.20525 " transform="matrix(1,0,0,-1,108.213,124.924)"/>
<path style="fill-rule:nonzero;fill:rgb(89.99939%,89.99939%,89.99939%);fill-opacity:1;stroke-width:0.3985;stroke-linecap:butt;stroke-linejoin:miter;stroke:rgb(0%,0%,0%);stroke-opacity:1;stroke-miterlimit:10;" d="M 80.173719 95.545094 L 62.365125 108.013844 L 51.751844 93.021656 L 65.994031 82.33025 Z M 80.173719 95.545094 " transform="matrix(1,0,0,-1,108.213,124.924)"/>
<path style="fill-rule:nonzero;fill:rgb(89.99939%,89.99939%,89.99939%);fill-opacity:1;stroke-width:0.3985;stroke-linecap:butt;stroke-linejoin:miter;stroke:rgb(0%,0%,0%);stroke-opacity:1;stroke-miterlimit:10;" d="M 32.154187 84.791188 L 33.298719 67.693531 L 52.779187 68.115406 L 45.134656 82.638844 Z M 32.154187 84.791188 " transform="matrix(1,0,0,-1,108.213,124.924)"/>
<path style="fill-rule:nonzero;fill:rgb(89.99939%,89.99939%,89.99939%);fill-opacity:1;stroke-width:0.3985;stroke-linecap:butt;stroke-linejoin:miter;stroke:rgb(0%,0%,0%);stroke-opacity:1;stroke-miterlimit:10;" d="M -55.259875 90.357594 L -37.2755 99.302906 L -42.658313 117.20525 L -62.361438 108.013844 Z M -55.259875 90.357594 " transform="matrix(1,0,0,-1,108.213,124.924)"/>
<path style="fill-rule:nonzero;fill:rgb(89.99939%,89.99939%,89.99939%);fill-opacity:1;stroke-width:0.3985;stroke-linecap:butt;stroke-linejoin:miter;stroke:rgb(0%,0%,0%);stroke-opacity:1;stroke-miterlimit:10;" d="M 35.087781 100.439625 L 51.751844 93.021656 L 62.365125 108.013844 L 42.658094 117.20525 Z M 35.087781 100.439625 " transform="matrix(1,0,0,-1,108.213,124.924)"/>
<path style="fill-rule:nonzero;fill:rgb(89.99939%,89.99939%,89.99939%);fill-opacity:1;stroke-width:0.3985;stroke-linecap:butt;stroke-linejoin:miter;stroke:rgb(0%,0%,0%);stroke-opacity:1;stroke-miterlimit:10;" d="M -62.361438 108.013844 L -80.170031 95.545094 L -71.783313 81.494313 L -55.259875 90.357594 Z M -62.361438 108.013844 " transform="matrix(1,0,0,-1,108.213,124.924)"/>
<path style="fill-rule:nonzero;fill:rgb(89.99939%,89.99939%,89.99939%);fill-opacity:1;stroke-width:0.3985;stroke-linecap:butt;stroke-linejoin:miter;stroke:rgb(0%,0%,0%);stroke-opacity:1;stroke-miterlimit:10;" d="M -1.955188 106.279469 L -4.755969 90.381031 L 14.337781 87.412281 L 16.900281 104.451344 Z M -1.955188 106.279469 " transform="matrix(1,0,0,-1,108.213,124.924)"/>
<path style="fill-rule:nonzero;fill:rgb(89.99939%,89.99939%,89.99939%);fill-opacity:1;stroke-width:0.3985;stroke-linecap:butt;stroke-linejoin:miter;stroke:rgb(0%,0%,0%);stroke-opacity:1;stroke-miterlimit:10;" d="M -21.658313 122.83025 L -42.658313 117.20525 L -37.2755 99.302906 L -20.259875 104.822438 Z M -21.658313 122.83025 " transform="matrix(1,0,0,-1,108.213,124.924)"/>
<path style="fill-rule:nonzero;fill:rgb(89.99939%,89.99939%,89.99939%);fill-opacity:1;stroke-width:0.3985;stroke-linecap:butt;stroke-linejoin:miter;stroke:rgb(0%,0%,0%);stroke-opacity:1;stroke-miterlimit:10;" d="M 0.00184375 124.724781 L -21.658313 122.83025 L -20.259875 104.822438 L -1.955188 106.279469 Z M 0.00184375 124.724781 " transform="matrix(1,0,0,-1,108.213,124.924)"/>
<path style="fill-rule:nonzero;fill:rgb(89.99939%,89.99939%,89.99939%);fill-opacity:1;stroke-width:0.3985;stroke-linecap:butt;stroke-linejoin:miter;stroke:rgb(0%,0%,0%);stroke-opacity:1;stroke-miterlimit:10;" d="M 33.298719 67.693531 L 32.154187 84.791188 L 14.337781 87.412281 L 14.560437 70.6115 Z M 33.298719 67.693531 " transform="matrix(1,0,0,-1,108.213,124.924)"/>
<path style="fill-rule:nonzero;fill:rgb(89.99939%,89.99939%,89.99939%);fill-opacity:1;stroke-width:0.3985;stroke-linecap:butt;stroke-linejoin:miter;stroke:rgb(0%,0%,0%);stroke-opacity:1;stroke-miterlimit:10;" d="M 65.994031 82.33025 L 78.5995 67.994313 L 95.544812 80.170094 L 80.173719 95.545094 Z M 65.994031 82.33025 " transform="matrix(1,0,0,-1,108.213,124.924)"/>
<path style="fill-rule:nonzero;fill:rgb(89.99939%,89.99939%,89.99939%);fill-opacity:1;stroke-width:0.3985;stroke-linecap:butt;stroke-linejoin:miter;stroke:rgb(0%,0%,0%);stroke-opacity:1;stroke-miterlimit:10;" d="M 21.658094 122.83025 L 0.00184375 124.724781 L -1.955188 106.279469 L 16.900281 104.451344 Z M 21.658094 122.83025 " transform="matrix(1,0,0,-1,108.213,124.924)"/>
<path style="fill-rule:nonzero;fill:rgb(89.99939%,89.99939%,89.99939%);fill-opacity:1;stroke-width:0.3985;stroke-linecap:butt;stroke-linejoin:miter;stroke:rgb(0%,0%,0%);stroke-opacity:1;stroke-miterlimit:10;" d="M 36.44325 43.431813 L 51.650281 51.216969 L 52.779187 68.115406 L 33.298719 67.693531 Z M 36.44325 43.431813 " transform="matrix(1,0,0,-1,108.213,124.924)"/>
<path style="fill-rule:nonzero;fill:rgb(89.99939%,89.99939%,89.99939%);fill-opacity:1;stroke-width:0.3985;stroke-linecap:butt;stroke-linejoin:miter;stroke:rgb(0%,0%,0%);stroke-opacity:1;stroke-miterlimit:10;" d="M 68.736219 39.685719 L 67.138562 60.275563 L 52.779187 68.115406 L 51.650281 51.216969 Z M 68.736219 39.685719 " transform="matrix(1,0,0,-1,108.213,124.924)"/>
<path style="fill-rule:nonzero;fill:rgb(89.99939%,89.99939%,89.99939%);fill-opacity:1;stroke-width:0.3985;stroke-linecap:butt;stroke-linejoin:miter;stroke:rgb(0%,0%,0%);stroke-opacity:1;stroke-miterlimit:10;" d="M -32.412219 62.920094 L -44.830188 75.920094 L -64.365344 65.744313 L -50.709094 52.541188 Z M -32.412219 62.920094 " transform="matrix(1,0,0,-1,108.213,124.924)"/>
<path style="fill-rule:nonzero;fill:rgb(89.99939%,89.99939%,89.99939%);fill-opacity:1;stroke-width:0.3985;stroke-linecap:butt;stroke-linejoin:miter;stroke:rgb(0%,0%,0%);stroke-opacity:1;stroke-miterlimit:10;" d="M -37.2755 99.302906 L -28.959094 85.166188 L -17.767688 93.1115 L -20.259875 104.822438 Z M -37.2755 99.302906 " transform="matrix(1,0,0,-1,108.213,124.924)"/>
<path style="fill-rule:nonzero;fill:rgb(89.99939%,89.99939%,89.99939%);fill-opacity:1;stroke-width:0.3985;stroke-linecap:butt;stroke-linejoin:miter;stroke:rgb(0%,0%,0%);stroke-opacity:1;stroke-miterlimit:10;" d="M 16.900281 104.451344 L 14.337781 87.412281 L 32.154187 84.791188 L 35.087781 100.439625 Z M 16.900281 104.451344 " transform="matrix(1,0,0,-1,108.213,124.924)"/>
<path style="fill-rule:nonzero;fill:rgb(89.99939%,89.99939%,89.99939%);fill-opacity:1;stroke-width:0.3985;stroke-linecap:butt;stroke-linejoin:miter;stroke:rgb(0%,0%,0%);stroke-opacity:1;stroke-miterlimit:10;" d="M -4.755969 90.381031 L -1.955188 106.279469 L -20.259875 104.822438 L -17.767688 93.1115 Z M -4.755969 90.381031 " transform="matrix(1,0,0,-1,108.213,124.924)"/>
<path style="fill-rule:nonzero;fill:rgb(89.99939%,89.99939%,89.99939%);fill-opacity:1;stroke-width:0.3985;stroke-linecap:butt;stroke-linejoin:miter;stroke:rgb(0%,0%,0%);stroke-opacity:1;stroke-miterlimit:10;" d="M 51.751844 93.021656 L 45.134656 82.638844 L 52.779187 68.115406 L 65.994031 82.33025 Z M 51.751844 93.021656 " transform="matrix(1,0,0,-1,108.213,124.924)"/>
</g>
</svg>
