solid Exported from Blender-2.83.4
facet normal 0.102381 -0.315090 -0.943523
outer loop
vertex 0.000000 0.000000 -1.000000
vertex 0.425323 -0.309011 -0.850654
vertex -0.162456 -0.499995 -0.850654
endloop
endfacet
facet normal 0.700224 -0.268032 -0.661699
outer loop
vertex 0.723607 -0.525725 -0.447220
vertex 0.425323 -0.309011 -0.850654
vertex 0.850648 0.000000 -0.525736
endloop
endfacet
facet normal -0.268034 -0.194736 -0.943523
outer loop
vertex 0.000000 0.000000 -1.000000
vertex -0.162456 -0.499995 -0.850654
vertex -0.525730 0.000000 -0.850652
endloop
endfacet
facet normal -0.268034 0.194736 -0.943523
outer loop
vertex 0.000000 0.000000 -1.000000
vertex -0.525730 0.000000 -0.850652
vertex -0.162456 0.499995 -0.850654
endloop
endfacet
facet normal 0.102381 0.315090 -0.943523
outer loop
vertex 0.000000 0.000000 -1.000000
vertex -0.162456 0.499995 -0.850654
vertex 0.425323 0.309011 -0.850654
endloop
endfacet
facet normal 0.904989 -0.268031 -0.330385
outer loop
vertex 0.723607 -0.525725 -0.447220
vertex 0.850648 0.000000 -0.525736
vertex 0.951058 -0.309013 0.000000
endloop
endfacet
facet normal 0.024747 -0.943521 -0.330386
outer loop
vertex -0.276388 -0.850649 -0.447220
vertex 0.262869 -0.809012 -0.525738
vertex 0.000000 -1.000000 0.000000
endloop
endfacet
facet normal -0.889697 -0.315095 -0.330385
outer loop
vertex -0.894426 0.000000 -0.447216
vertex -0.688189 -0.499997 -0.525736
vertex -0.951058 -0.309013 0.000000
endloop
endfacet
facet normal -0.574602 0.748783 -0.330388
outer loop
vertex -0.276388 0.850649 -0.447220
vertex -0.688189 0.499997 -0.525736
vertex -0.587786 0.809017 0.000000
endloop
endfacet
facet normal 0.534576 0.777865 -0.330387
outer loop
vertex 0.723607 0.525725 -0.447220
vertex 0.262869 0.809012 -0.525738
vertex 0.587786 0.809017 0.000000
endloop
endfacet
facet normal 0.802609 -0.583126 -0.125627
outer loop
vertex 0.723607 -0.525725 -0.447220
vertex 0.951058 -0.309013 0.000000
vertex 0.587786 -0.809017 0.000000
endloop
endfacet
facet normal -0.306569 -0.943522 -0.125629
outer loop
vertex -0.276388 -0.850649 -0.447220
vertex 0.000000 -1.000000 0.000000
vertex -0.587786 -0.809017 0.000000
endloop
endfacet
facet normal -0.992077 0.000000 -0.125628
outer loop
vertex -0.894426 0.000000 -0.447216
vertex -0.951058 -0.309013 0.000000
vertex -0.951058 0.309013 0.000000
endloop
endfacet
facet normal -0.306569 0.943522 -0.125629
outer loop
vertex -0.276388 0.850649 -0.447220
vertex -0.587786 0.809017 0.000000
vertex 0.000000 1.000000 0.000000
endloop
endfacet
facet normal 0.802609 0.583126 -0.125627
outer loop
vertex 0.723607 0.525725 -0.447220
vertex 0.587786 0.809017 0.000000
vertex 0.951058 0.309013 0.000000
endloop
endfacet
facet normal 0.408946 -0.628425 0.661699
outer loop
vertex 0.276388 -0.850649 0.447220
vertex 0.688189 -0.499997 0.525736
vertex 0.162456 -0.499995 0.850654
endloop
endfacet
facet normal -0.471300 -0.583122 0.661699
outer loop
vertex -0.723607 -0.525725 0.447220
vertex -0.262869 -0.809012 0.525738
vertex -0.425323 -0.309011 0.850654
endloop
endfacet
facet normal -0.700224 0.268032 0.661699
outer loop
vertex -0.723607 0.525725 0.447220
vertex -0.850648 0.000000 0.525736
vertex -0.425323 0.309011 0.850654
endloop
endfacet
facet normal 0.038530 0.748779 0.661699
outer loop
vertex 0.276388 0.850649 0.447220
vertex -0.262869 0.809012 0.525738
vertex 0.162456 0.499995 0.850654
endloop
endfacet
facet normal 0.724042 0.194736 0.661695
outer loop
vertex 0.894426 0.000000 0.447216
vertex 0.688189 0.499997 0.525736
vertex 0.525730 0.000000 0.850652
endloop
endfacet
facet normal 0.268034 0.194737 0.943523
outer loop
vertex 0.525730 0.000000 0.850652
vertex 0.162456 0.499995 0.850654
vertex 0.000000 0.000000 1.000000
endloop
endfacet
facet normal 0.491119 0.356821 0.794657
outer loop
vertex 0.525730 0.000000 0.850652
vertex 0.688189 0.499997 0.525736
vertex 0.162456 0.499995 0.850654
endloop
endfacet
facet normal 0.408946 0.628425 0.661699
outer loop
vertex 0.688189 0.499997 0.525736
vertex 0.276388 0.850649 0.447220
vertex 0.162456 0.499995 0.850654
endloop
endfacet
facet normal -0.102381 0.315090 0.943523
outer loop
vertex 0.162456 0.499995 0.850654
vertex -0.425323 0.309011 0.850654
vertex 0.000000 0.000000 1.000000
endloop
endfacet
facet normal -0.187594 0.577345 0.794658
outer loop
vertex 0.162456 0.499995 0.850654
vertex -0.262869 0.809012 0.525738
vertex -0.425323 0.309011 0.850654
endloop
endfacet
facet normal -0.471300 0.583122 0.661699
outer loop
vertex -0.262869 0.809012 0.525738
vertex -0.723607 0.525725 0.447220
vertex -0.425323 0.309011 0.850654
endloop
endfacet
facet normal -0.331304 0.000000 0.943524
outer loop
vertex -0.425323 0.309011 0.850654
vertex -0.425323 -0.309011 0.850654
vertex 0.000000 0.000000 1.000000
endloop
endfacet
facet normal -0.607060 0.000000 0.794656
outer loop
vertex -0.425323 0.309011 0.850654
vertex -0.850648 0.000000 0.525736
vertex -0.425323 -0.309011 0.850654
endloop
endfacet
facet normal -0.700224 -0.268032 0.661699
outer loop
vertex -0.850648 0.000000 0.525736
vertex -0.723607 -0.525725 0.447220
vertex -0.425323 -0.309011 0.850654
endloop
endfacet
facet normal -0.102381 -0.315090 0.943523
outer loop
vertex -0.425323 -0.309011 0.850654
vertex 0.162456 -0.499995 0.850654
vertex 0.000000 0.000000 1.000000
endloop
endfacet
facet normal -0.187594 -0.577345 0.794658
outer loop
vertex -0.425323 -0.309011 0.850654
vertex -0.262869 -0.809012 0.525738
vertex 0.162456 -0.499995 0.850654
endloop
endfacet
facet normal 0.038530 -0.748779 0.661699
outer loop
vertex -0.262869 -0.809012 0.525738
vertex 0.276388 -0.850649 0.447220
vertex 0.162456 -0.499995 0.850654
endloop
endfacet
facet normal 0.268034 -0.194737 0.943523
outer loop
vertex 0.162456 -0.499995 0.850654
vertex 0.525730 0.000000 0.850652
vertex 0.000000 0.000000 1.000000
endloop
endfacet
facet normal 0.491120 -0.356821 0.794657
outer loop
vertex 0.162456 -0.499995 0.850654
vertex 0.688189 -0.499997 0.525736
vertex 0.525730 0.000000 0.850652
endloop
endfacet
facet normal 0.724042 -0.194736 0.661695
outer loop
vertex 0.688189 -0.499997 0.525736
vertex 0.894426 0.000000 0.447216
vertex 0.525730 0.000000 0.850652
endloop
endfacet
facet normal 0.889697 0.315095 0.330385
outer loop
vertex 0.951058 0.309013 0.000000
vertex 0.688189 0.499997 0.525736
vertex 0.894426 0.000000 0.447216
endloop
endfacet
facet normal 0.794656 0.577348 0.187595
outer loop
vertex 0.951058 0.309013 0.000000
vertex 0.587786 0.809017 0.000000
vertex 0.688189 0.499997 0.525736
endloop
endfacet
facet normal 0.574602 0.748783 0.330388
outer loop
vertex 0.587786 0.809017 0.000000
vertex 0.276388 0.850649 0.447220
vertex 0.688189 0.499997 0.525736
endloop
endfacet
facet normal -0.024747 0.943521 0.330386
outer loop
vertex 0.000000 1.000000 0.000000
vertex -0.262869 0.809012 0.525738
vertex 0.276388 0.850649 0.447220
endloop
endfacet
facet normal -0.303531 0.934171 0.187597
outer loop
vertex 0.000000 1.000000 0.000000
vertex -0.587786 0.809017 0.000000
vertex -0.262869 0.809012 0.525738
endloop
endfacet
facet normal -0.534576 0.777864 0.330387
outer loop
vertex -0.587786 0.809017 0.000000
vertex -0.723607 0.525725 0.447220
vertex -0.262869 0.809012 0.525738
endloop
endfacet
facet normal -0.904989 0.268031 0.330385
outer loop
vertex -0.951058 0.309013 0.000000
vertex -0.850648 0.000000 0.525736
vertex -0.723607 0.525725 0.447220
endloop
endfacet
facet normal -0.982246 0.000000 0.187599
outer loop
vertex -0.951058 0.309013 0.000000
vertex -0.951058 -0.309013 0.000000
vertex -0.850648 0.000000 0.525736
endloop
endfacet
facet normal -0.904989 -0.268031 0.330385
outer loop
vertex -0.951058 -0.309013 0.000000
vertex -0.723607 -0.525725 0.447220
vertex -0.850648 0.000000 0.525736
endloop
endfacet
facet normal -0.534576 -0.777864 0.330387
outer loop
vertex -0.587786 -0.809017 0.000000
vertex -0.262869 -0.809012 0.525738
vertex -0.723607 -0.525725 0.447220
endloop
endfacet
facet normal -0.303531 -0.934171 0.187597
outer loop
vertex -0.587786 -0.809017 0.000000
vertex 0.000000 -1.000000 0.000000
vertex -0.262869 -0.809012 0.525738
endloop
endfacet
facet normal -0.024747 -0.943521 0.330386
outer loop
vertex 0.000000 -1.000000 0.000000
vertex 0.276388 -0.850649 0.447220
vertex -0.262869 -0.809012 0.525738
endloop
endfacet
facet normal 0.574602 -0.748783 0.330388
outer loop
vertex 0.587786 -0.809017 0.000000
vertex 0.688189 -0.499997 0.525736
vertex 0.276388 -0.850649 0.447220
endloop
endfacet
facet normal 0.794656 -0.577348 0.187595
outer loop
vertex 0.587786 -0.809017 0.000000
vertex 0.951058 -0.309013 0.000000
vertex 0.688189 -0.499997 0.525736
endloop
endfacet
facet normal 0.889697 -0.315095 0.330385
outer loop
vertex 0.951058 -0.309013 0.000000
vertex 0.894426 0.000000 0.447216
vertex 0.688189 -0.499997 0.525736
endloop
endfacet
facet normal 0.306569 0.943522 0.125629
outer loop
vertex 0.587786 0.809017 0.000000
vertex 0.000000 1.000000 0.000000
vertex 0.276388 0.850649 0.447220
endloop
endfacet
facet normal 0.303531 0.934171 -0.187597
outer loop
vertex 0.587786 0.809017 0.000000
vertex 0.262869 0.809012 -0.525738
vertex 0.000000 1.000000 0.000000
endloop
endfacet
facet normal 0.024747 0.943521 -0.330386
outer loop
vertex 0.262869 0.809012 -0.525738
vertex -0.276388 0.850649 -0.447220
vertex 0.000000 1.000000 0.000000
endloop
endfacet
facet normal -0.802609 0.583126 0.125627
outer loop
vertex -0.587786 0.809017 0.000000
vertex -0.951058 0.309013 0.000000
vertex -0.723607 0.525725 0.447220
endloop
endfacet
facet normal -0.794656 0.577348 -0.187595
outer loop
vertex -0.587786 0.809017 0.000000
vertex -0.688189 0.499997 -0.525736
vertex -0.951058 0.309013 0.000000
endloop
endfacet
facet normal -0.889697 0.315095 -0.330385
outer loop
vertex -0.688189 0.499997 -0.525736
vertex -0.894426 0.000000 -0.447216
vertex -0.951058 0.309013 0.000000
endloop
endfacet
facet normal -0.802609 -0.583126 0.125627
outer loop
vertex -0.951058 -0.309013 0.000000
vertex -0.587786 -0.809017 0.000000
vertex -0.723607 -0.525725 0.447220
endloop
endfacet
facet normal -0.794656 -0.577348 -0.187595
outer loop
vertex -0.951058 -0.309013 0.000000
vertex -0.688189 -0.499997 -0.525736
vertex -0.587786 -0.809017 0.000000
endloop
endfacet
facet normal -0.574602 -0.748784 -0.330388
outer loop
vertex -0.688189 -0.499997 -0.525736
vertex -0.276388 -0.850649 -0.447220
vertex -0.587786 -0.809017 0.000000
endloop
endfacet
facet normal 0.306569 -0.943522 0.125629
outer loop
vertex 0.000000 -1.000000 0.000000
vertex 0.587786 -0.809017 0.000000
vertex 0.276388 -0.850649 0.447220
endloop
endfacet
facet normal 0.303531 -0.934171 -0.187597
outer loop
vertex 0.000000 -1.000000 0.000000
vertex 0.262869 -0.809012 -0.525738
vertex 0.587786 -0.809017 0.000000
endloop
endfacet
facet normal 0.534576 -0.777865 -0.330387
outer loop
vertex 0.262869 -0.809012 -0.525738
vertex 0.723607 -0.525725 -0.447220
vertex 0.587786 -0.809017 0.000000
endloop
endfacet
facet normal 0.992077 0.000000 0.125628
outer loop
vertex 0.951058 -0.309013 0.000000
vertex 0.951058 0.309013 0.000000
vertex 0.894426 0.000000 0.447216
endloop
endfacet
facet normal 0.982246 0.000000 -0.187599
outer loop
vertex 0.951058 -0.309013 0.000000
vertex 0.850648 0.000000 -0.525736
vertex 0.951058 0.309013 0.000000
endloop
endfacet
facet normal 0.904989 0.268031 -0.330385
outer loop
vertex 0.850648 0.000000 -0.525736
vertex 0.723607 0.525725 -0.447220
vertex 0.951058 0.309013 0.000000
endloop
endfacet
facet normal 0.471300 0.583122 -0.661699
outer loop
vertex 0.425323 0.309011 -0.850654
vertex 0.262869 0.809012 -0.525738
vertex 0.723607 0.525725 -0.447220
endloop
endfacet
facet normal 0.187594 0.577345 -0.794658
outer loop
vertex 0.425323 0.309011 -0.850654
vertex -0.162456 0.499995 -0.850654
vertex 0.262869 0.809012 -0.525738
endloop
endfacet
facet normal -0.038531 0.748779 -0.661699
outer loop
vertex -0.162456 0.499995 -0.850654
vertex -0.276388 0.850649 -0.447220
vertex 0.262869 0.809012 -0.525738
endloop
endfacet
facet normal -0.408946 0.628425 -0.661699
outer loop
vertex -0.162456 0.499995 -0.850654
vertex -0.688189 0.499997 -0.525736
vertex -0.276388 0.850649 -0.447220
endloop
endfacet
facet normal -0.491120 0.356821 -0.794657
outer loop
vertex -0.162456 0.499995 -0.850654
vertex -0.525730 0.000000 -0.850652
vertex -0.688189 0.499997 -0.525736
endloop
endfacet
facet normal -0.724042 0.194736 -0.661695
outer loop
vertex -0.525730 0.000000 -0.850652
vertex -0.894426 0.000000 -0.447216
vertex -0.688189 0.499997 -0.525736
endloop
endfacet
facet normal -0.724042 -0.194736 -0.661695
outer loop
vertex -0.525730 0.000000 -0.850652
vertex -0.688189 -0.499997 -0.525736
vertex -0.894426 0.000000 -0.447216
endloop
endfacet
facet normal -0.491120 -0.356821 -0.794657
outer loop
vertex -0.525730 0.000000 -0.850652
vertex -0.162456 -0.499995 -0.850654
vertex -0.688189 -0.499997 -0.525736
endloop
endfacet
facet normal -0.408946 -0.628425 -0.661699
outer loop
vertex -0.162456 -0.499995 -0.850654
vertex -0.276388 -0.850649 -0.447220
vertex -0.688189 -0.499997 -0.525736
endloop
endfacet
facet normal 0.700224 0.268032 -0.661699
outer loop
vertex 0.850648 0.000000 -0.525736
vertex 0.425323 0.309011 -0.850654
vertex 0.723607 0.525725 -0.447220
endloop
endfacet
facet normal 0.607061 0.000000 -0.794656
outer loop
vertex 0.850648 0.000000 -0.525736
vertex 0.425323 -0.309011 -0.850654
vertex 0.425323 0.309011 -0.850654
endloop
endfacet
facet normal 0.331304 0.000000 -0.943524
outer loop
vertex 0.425323 -0.309011 -0.850654
vertex 0.000000 0.000000 -1.000000
vertex 0.425323 0.309011 -0.850654
endloop
endfacet
facet normal -0.038531 -0.748779 -0.661699
outer loop
vertex -0.162456 -0.499995 -0.850654
vertex 0.262869 -0.809012 -0.525738
vertex -0.276388 -0.850649 -0.447220
endloop
endfacet
facet normal 0.187594 -0.577345 -0.794658
outer loop
vertex -0.162456 -0.499995 -0.850654
vertex 0.425323 -0.309011 -0.850654
vertex 0.262869 -0.809012 -0.525738
endloop
endfacet
facet normal 0.471300 -0.583122 -0.661699
outer loop
vertex 0.425323 -0.309011 -0.850654
vertex 0.723607 -0.525725 -0.447220
vertex 0.262869 -0.809012 -0.525738
endloop
endfacet
endsolid Exported from Blender-2.83.4
